<svg xmlns="http://www.w3.org/2000/svg" width="140.098" height="21.986" viewBox="0 0 140.098 21.986"><g transform="translate(-32 -20)"><g transform="translate(56.627 21.374)"><path d="M11.142-9.909a2.566,2.566,0,0,1-.193,1.02,2.675,2.675,0,0,1-.526.8,3.273,3.273,0,0,1-.773.6,5.139,5.139,0,0,1-.939.408,6.18,6.18,0,0,1-1.025.236,7.283,7.283,0,0,1-1.031.075,19.316,19.316,0,0,1-2.013-.1,13.579,13.579,0,0,1-1.8-.311V-8.9a14.963,14.963,0,0,0,1.879.408,12.552,12.552,0,0,0,1.857.14,4.167,4.167,0,0,0,1.986-.365A1.142,1.142,0,0,0,9.21-9.759a1.275,1.275,0,0,0-.1-.521,1.183,1.183,0,0,0-.37-.44,3.54,3.54,0,0,0-.832-.435q-.564-.225-1.541-.515a10.934,10.934,0,0,1-1.347-.488,4.517,4.517,0,0,1-1.068-.649,2.789,2.789,0,0,1-.709-.88,2.589,2.589,0,0,1-.258-1.192,2.738,2.738,0,0,1,.209-.988,2.684,2.684,0,0,1,.714-1,3.973,3.973,0,0,1,1.363-.768,6.466,6.466,0,0,1,2.147-.306q.633,0,1.406.07a14.523,14.523,0,0,1,1.61.242v1.664a15.4,15.4,0,0,0-1.669-.317,10.877,10.877,0,0,0-1.369-.1,5.462,5.462,0,0,0-1.176.107,2.439,2.439,0,0,0-.773.3,1.152,1.152,0,0,0-.424.44A1.175,1.175,0,0,0,4.894-15a1.206,1.206,0,0,0,.113.526,1.259,1.259,0,0,0,.419.456,4.127,4.127,0,0,0,.853.44q.547.22,1.428.478a11.421,11.421,0,0,1,1.61.585,4.156,4.156,0,0,1,1.063.682,2.2,2.2,0,0,1,.585.848A3.042,3.042,0,0,1,11.142-9.909Zm3.114-7.837H15.92l.075,1.739a7.782,7.782,0,0,1,.912-.929,5,5,0,0,1,.864-.6,3.236,3.236,0,0,1,.864-.317,4.484,4.484,0,0,1,.912-.091,3.155,3.155,0,0,1,2.517.982A4.407,4.407,0,0,1,22.919-14v7.032H21.051v-6.881a3.037,3.037,0,0,0-.472-1.873,1.673,1.673,0,0,0-1.406-.607,2.243,2.243,0,0,0-.671.1,2.445,2.445,0,0,0-.682.354,5.628,5.628,0,0,0-.768.682q-.413.429-.929,1.074v7.15H14.256ZM29.575-16.2H26.387v-1.546h5.078v9.222h3.21v1.557H26.033V-8.524h3.543Zm.655-6.065a1.482,1.482,0,0,1,.58.113,1.4,1.4,0,0,1,.467.317,1.524,1.524,0,0,1,.311.467,1.443,1.443,0,0,1,.113.574,1.454,1.454,0,0,1-.113.569,1.507,1.507,0,0,1-.311.472,1.4,1.4,0,0,1-.467.317,1.482,1.482,0,0,1-.58.113,1.482,1.482,0,0,1-.58-.113,1.4,1.4,0,0,1-.467-.317,1.507,1.507,0,0,1-.311-.472,1.454,1.454,0,0,1-.113-.569,1.443,1.443,0,0,1,.113-.574,1.524,1.524,0,0,1,.311-.467,1.4,1.4,0,0,1,.467-.317A1.482,1.482,0,0,1,30.23-22.266ZM46.763-12.55a7.142,7.142,0,0,1-.4,2.512,4.921,4.921,0,0,1-1.111,1.782,4.554,4.554,0,0,1-1.675,1.063,6.035,6.035,0,0,1-2.093.354,9.787,9.787,0,0,1-1.025-.054,7.776,7.776,0,0,1-1.036-.182v4.509H37.552v-15.18h1.664l.118,1.8a4.808,4.808,0,0,1,1.718-1.551,4.442,4.442,0,0,1,1.975-.446,3.291,3.291,0,0,1,1.621.386,3.364,3.364,0,0,1,1.17,1.09,5.155,5.155,0,0,1,.709,1.7A9.6,9.6,0,0,1,46.763-12.55Zm-1.911.086a9.092,9.092,0,0,0-.123-1.557,4.062,4.062,0,0,0-.392-1.213,2.153,2.153,0,0,0-.687-.789,1.733,1.733,0,0,0-1-.284,2.429,2.429,0,0,0-.719.113,2.917,2.917,0,0,0-.757.376,5.639,5.639,0,0,0-.827.7,10.994,10.994,0,0,0-.929,1.079v5.228a6.269,6.269,0,0,0,1.084.338,5.256,5.256,0,0,0,1.116.123,2.928,2.928,0,0,0,2.372-1.025A4.719,4.719,0,0,0,44.852-12.464Z" transform="translate(-2.844 22.266)" fill="#ccc"/><path d="M11.711-12.492a7.234,7.234,0,0,1-.37,2.4A5.057,5.057,0,0,1,10.288-8.3,4.523,4.523,0,0,1,8.63-7.172a5.868,5.868,0,0,1-2.2.392,10.854,10.854,0,0,1-1.954-.182A10.018,10.018,0,0,1,2.5-7.543V-22.078H4.368V-17.9l-.086,2a4.848,4.848,0,0,1,1.723-1.53,4.452,4.452,0,0,1,1.97-.446,3.291,3.291,0,0,1,1.621.386,3.364,3.364,0,0,1,1.17,1.09,5.155,5.155,0,0,1,.709,1.7A9.6,9.6,0,0,1,11.711-12.492ZM9.8-12.406a9.092,9.092,0,0,0-.123-1.557,4.062,4.062,0,0,0-.392-1.213,2.153,2.153,0,0,0-.687-.789,1.733,1.733,0,0,0-1-.284,2.429,2.429,0,0,0-.719.113,2.917,2.917,0,0,0-.757.376,5.639,5.639,0,0,0-.827.7,10.994,10.994,0,0,0-.929,1.079v5.228a7.285,7.285,0,0,0,1.116.338,5.117,5.117,0,0,0,1.084.123A3.707,3.707,0,0,0,7.8-8.5,2.538,2.538,0,0,0,8.828-9.18a3.41,3.41,0,0,0,.709-1.267A6.267,6.267,0,0,0,9.8-12.406Zm13.012,5.5H21.137l-.064-1.739a8.7,8.7,0,0,1-.918.929,4.745,4.745,0,0,1-.864.6,3.327,3.327,0,0,1-.864.317,4.461,4.461,0,0,1-.918.091A3.147,3.147,0,0,1,15-7.693a4.4,4.4,0,0,1-.848-2.952v-7.042h1.868V-10.8q0,2.48,1.868,2.48a2.243,2.243,0,0,0,.671-.1,2.519,2.519,0,0,0,.687-.354,5.436,5.436,0,0,0,.773-.682q.413-.429.929-1.084v-7.15h1.868Zm11.358-.4a8.08,8.08,0,0,1-1.5.413,9.18,9.18,0,0,1-1.583.134,5.311,5.311,0,0,1-3.934-1.385,5.5,5.5,0,0,1-1.379-4.047,6.461,6.461,0,0,1,.4-2.319,5.164,5.164,0,0,1,1.116-1.782,4.935,4.935,0,0,1,1.718-1.143,5.833,5.833,0,0,1,2.2-.4,9.824,9.824,0,0,1,1.567.118,6.491,6.491,0,0,1,1.4.386v1.782a5.922,5.922,0,0,0-1.422-.531,6.67,6.67,0,0,0-1.5-.166,3.411,3.411,0,0,0-1.358.274,3.312,3.312,0,0,0-1.122.789,3.738,3.738,0,0,0-.762,1.256,4.723,4.723,0,0,0-.279,1.675,4.03,4.03,0,0,0,.95,2.925,3.517,3.517,0,0,0,2.636.972A6.288,6.288,0,0,0,32.79-8.53a6.12,6.12,0,0,0,1.379-.515Zm12.969.4H44.573l-5.024-5.776v5.776H37.681V-22.078h1.868v9.318l4.842-4.927h2.469L41.8-12.717ZM58.2-12.867q0,.4-.011.666t-.032.5H50.585a3.354,3.354,0,0,0,.923,2.539,3.7,3.7,0,0,0,2.662.886q.472,0,.945-.038t.912-.1q.44-.064.843-.145t.746-.177V-7.2a13.04,13.04,0,0,1-1.723.349,14.387,14.387,0,0,1-1.991.134,6.772,6.772,0,0,1-2.383-.376,4.079,4.079,0,0,1-1.637-1.09,4.486,4.486,0,0,1-.945-1.75,8.281,8.281,0,0,1-.306-2.346,6.965,6.965,0,0,1,.327-2.152,5.4,5.4,0,0,1,.955-1.782,4.593,4.593,0,0,1,1.541-1.218,4.616,4.616,0,0,1,2.072-.451,5.259,5.259,0,0,1,2,.354,4.009,4.009,0,0,1,1.465,1,4.279,4.279,0,0,1,.9,1.578A6.616,6.616,0,0,1,58.2-12.867Zm-1.943-.268a4.072,4.072,0,0,0-.14-1.315,2.768,2.768,0,0,0-.531-1.025,2.475,2.475,0,0,0-.9-.671,3.009,3.009,0,0,0-1.245-.242,2.6,2.6,0,0,0-1.116.236,2.546,2.546,0,0,0-.87.666,3.438,3.438,0,0,0-.59,1.031,4.752,4.752,0,0,0-.279,1.32ZM69.426-7.06a9.1,9.1,0,0,1-1.31.231,13.381,13.381,0,0,1-1.374.07,4.346,4.346,0,0,1-3.027-.918,3.648,3.648,0,0,1-1-2.818V-16.12H59.7v-1.567h3.017V-20.65l1.868-.483v3.446h4.842v1.567H64.584v5.475A2.257,2.257,0,0,0,65.2-8.911a2.582,2.582,0,0,0,1.82.574,8.688,8.688,0,0,0,1.127-.081,10.717,10.717,0,0,0,1.277-.252Z" transform="translate(46.045 22.207)" fill="#ccc"/></g><g transform="translate(32 20)"><path d="M0,0H18.551L15.685,21.986H2.935Z" transform="translate(0 0)" fill="#e6e6e6"/><path d="M0,0H9.275V21.986H2.918Z" transform="translate(0 0)" fill="#ccc"/></g></g></svg>