<svg xmlns="http://www.w3.org/2000/svg" width="203.909" height="32" viewBox="0 0 203.909 32"><g transform="translate(-32 -20)"><g transform="translate(5 5.266)"><path d="M14.922-4.281A3.734,3.734,0,0,1,14.641-2.8a3.894,3.894,0,0,1-.766,1.164,4.763,4.763,0,0,1-1.125.867,7.479,7.479,0,0,1-1.367.594A8.995,8.995,0,0,1,9.891.172a10.6,10.6,0,0,1-1.5.109A28.114,28.114,0,0,1,5.461.141,19.763,19.763,0,0,1,2.844-.312v-2.5a21.779,21.779,0,0,0,2.734.594,18.269,18.269,0,0,0,2.7.2,6.065,6.065,0,0,0,2.891-.531,1.662,1.662,0,0,0,.938-1.516,1.856,1.856,0,0,0-.148-.758,1.722,1.722,0,0,0-.539-.641,5.152,5.152,0,0,0-1.211-.633q-.82-.328-2.242-.75a15.915,15.915,0,0,1-1.961-.711A6.575,6.575,0,0,1,4.453-8.5,4.059,4.059,0,0,1,3.422-9.781a3.768,3.768,0,0,1-.375-1.734,3.986,3.986,0,0,1,.3-1.437,3.906,3.906,0,0,1,1.039-1.453,5.782,5.782,0,0,1,1.984-1.117A9.411,9.411,0,0,1,9.5-15.969q.922,0,2.047.1a21.138,21.138,0,0,1,2.344.352v2.422a22.407,22.407,0,0,0-2.43-.461A15.831,15.831,0,0,0,9.469-13.7a7.95,7.95,0,0,0-1.711.156,3.55,3.55,0,0,0-1.125.43,1.677,1.677,0,0,0-.617.641,1.71,1.71,0,0,0-.187.789,1.755,1.755,0,0,0,.164.766,1.832,1.832,0,0,0,.609.664,6.006,6.006,0,0,0,1.242.641q.8.32,2.078.7a16.623,16.623,0,0,1,2.344.852,6.049,6.049,0,0,1,1.547.992,3.2,3.2,0,0,1,.852,1.234A4.428,4.428,0,0,1,14.922-4.281Zm4.532-11.406h2.422l.109,2.531a11.326,11.326,0,0,1,1.328-1.352,7.283,7.283,0,0,1,1.258-.867,4.709,4.709,0,0,1,1.258-.461,6.527,6.527,0,0,1,1.328-.133,4.591,4.591,0,0,1,3.664,1.43,6.415,6.415,0,0,1,1.242,4.3V0H29.344V-10.016a4.421,4.421,0,0,0-.687-2.727,2.435,2.435,0,0,0-2.047-.883,3.265,3.265,0,0,0-.977.148,3.559,3.559,0,0,0-.992.516,8.192,8.192,0,0,0-1.117.992q-.6.625-1.352,1.563V0H19.454Zm22.3,2.25H37.111v-2.25H44.5V-2.266h4.672V0H36.6V-2.266h5.156Zm.953-8.828a2.157,2.157,0,0,1,.844.164,2.041,2.041,0,0,1,.68.461,2.219,2.219,0,0,1,.453.68,2.1,2.1,0,0,1,.164.836,2.117,2.117,0,0,1-.164.828,2.193,2.193,0,0,1-.453.688,2.041,2.041,0,0,1-.68.461,2.157,2.157,0,0,1-.844.164,2.157,2.157,0,0,1-.844-.164,2.041,2.041,0,0,1-.68-.461,2.193,2.193,0,0,1-.453-.687,2.117,2.117,0,0,1-.164-.828,2.1,2.1,0,0,1,.164-.836,2.219,2.219,0,0,1,.453-.68,2.041,2.041,0,0,1,.68-.461A2.157,2.157,0,0,1,42.7-22.266ZM66.768-8.125a10.4,10.4,0,0,1-.586,3.656,7.163,7.163,0,0,1-1.617,2.594A6.628,6.628,0,0,1,62.127-.328,8.784,8.784,0,0,1,59.08.188,14.244,14.244,0,0,1,57.588.109,11.318,11.318,0,0,1,56.08-.156V6.406H53.361V-15.687h2.422l.172,2.625a7,7,0,0,1,2.5-2.258,6.465,6.465,0,0,1,2.875-.648,4.791,4.791,0,0,1,2.359.563,4.9,4.9,0,0,1,1.7,1.586,7.5,7.5,0,0,1,1.031,2.469A13.967,13.967,0,0,1,66.768-8.125ZM63.986-8a13.234,13.234,0,0,0-.18-2.266,5.912,5.912,0,0,0-.57-1.766,3.133,3.133,0,0,0-1-1.148,2.523,2.523,0,0,0-1.453-.414,3.535,3.535,0,0,0-1.047.164,4.245,4.245,0,0,0-1.1.547,8.207,8.207,0,0,0-1.2,1.016A16,16,0,0,0,56.08-10.3v7.609a9.124,9.124,0,0,0,1.578.492,7.65,7.65,0,0,0,1.625.18,4.261,4.261,0,0,0,3.453-1.492A6.868,6.868,0,0,0,63.986-8Z" transform="translate(60 39)" fill="#ccc"/><path d="M15.906-8.125a10.529,10.529,0,0,1-.539,3.492,7.36,7.36,0,0,1-1.531,2.609A6.584,6.584,0,0,1,11.422-.383a8.541,8.541,0,0,1-3.2.57A15.8,15.8,0,0,1,5.375-.078,14.58,14.58,0,0,1,2.5-.922V-22.078H5.219V-16l-.125,2.906A7.057,7.057,0,0,1,7.6-15.32a6.48,6.48,0,0,1,2.867-.648,4.791,4.791,0,0,1,2.359.563,4.9,4.9,0,0,1,1.7,1.586,7.5,7.5,0,0,1,1.031,2.469A13.967,13.967,0,0,1,15.906-8.125ZM13.125-8a13.234,13.234,0,0,0-.18-2.266,5.912,5.912,0,0,0-.57-1.766,3.133,3.133,0,0,0-1-1.148,2.523,2.523,0,0,0-1.453-.414,3.535,3.535,0,0,0-1.047.164,4.245,4.245,0,0,0-1.1.547,8.207,8.207,0,0,0-1.2,1.016A16,16,0,0,0,5.219-10.3v7.609A10.6,10.6,0,0,0,6.844-2.2a7.447,7.447,0,0,0,1.578.18,5.4,5.4,0,0,0,1.789-.3,3.694,3.694,0,0,0,1.5-.992,4.963,4.963,0,0,0,1.031-1.844A9.121,9.121,0,0,0,13.125-8ZM32.063,0H29.626l-.094-2.531A12.663,12.663,0,0,1,28.2-1.18a6.906,6.906,0,0,1-1.258.867A4.843,4.843,0,0,1,25.68.148a6.492,6.492,0,0,1-1.336.133,4.58,4.58,0,0,1-3.656-1.422,6.411,6.411,0,0,1-1.234-4.3v-10.25h2.719V-5.656q0,3.609,2.719,3.609a3.265,3.265,0,0,0,.977-.148,3.667,3.667,0,0,0,1-.516A7.912,7.912,0,0,0,27.993-3.7q.6-.625,1.352-1.578V-15.687h2.719ZM48.6-.578a11.76,11.76,0,0,1-2.18.6,13.361,13.361,0,0,1-2.3.2A7.73,7.73,0,0,1,38.384-1.8a8,8,0,0,1-2.008-5.891,9.4,9.4,0,0,1,.578-3.375,7.517,7.517,0,0,1,1.625-2.594,7.182,7.182,0,0,1,2.5-1.664,8.49,8.49,0,0,1,3.2-.586,14.3,14.3,0,0,1,2.281.172,9.447,9.447,0,0,1,2.031.563v2.594a8.619,8.619,0,0,0-2.07-.773,9.709,9.709,0,0,0-2.18-.242,4.965,4.965,0,0,0-1.977.4,4.82,4.82,0,0,0-1.633,1.148,5.44,5.44,0,0,0-1.109,1.828,6.875,6.875,0,0,0-.406,2.438A5.866,5.866,0,0,0,40.6-3.523a5.119,5.119,0,0,0,3.836,1.414,9.152,9.152,0,0,0,2.148-.25,8.907,8.907,0,0,0,2.008-.75ZM67.471,0H63.736L56.424-8.406V0H53.705V-22.078h2.719V-8.516l7.047-7.172h3.594L59.705-8.453ZM83.565-8.672q0,.578-.016.969t-.047.734H72.487a4.882,4.882,0,0,0,1.344,3.7,5.38,5.38,0,0,0,3.875,1.289q.688,0,1.375-.055t1.328-.148q.641-.094,1.227-.211t1.086-.258V-.422a18.98,18.98,0,0,1-2.508.508,20.94,20.94,0,0,1-2.9.2,9.856,9.856,0,0,1-3.469-.547,5.937,5.937,0,0,1-2.383-1.586A6.53,6.53,0,0,1,70.088-4.4a12.053,12.053,0,0,1-.445-3.414,10.138,10.138,0,0,1,.477-3.133,7.864,7.864,0,0,1,1.391-2.594,6.685,6.685,0,0,1,2.242-1.773,6.718,6.718,0,0,1,3.016-.656,7.654,7.654,0,0,1,2.906.516,5.836,5.836,0,0,1,2.133,1.461,6.229,6.229,0,0,1,1.313,2.3A9.629,9.629,0,0,1,83.565-8.672Zm-2.828-.391a5.927,5.927,0,0,0-.2-1.914,4.029,4.029,0,0,0-.773-1.492,3.6,3.6,0,0,0-1.3-.977,4.379,4.379,0,0,0-1.812-.352,3.786,3.786,0,0,0-1.625.344,3.706,3.706,0,0,0-1.266.969,5,5,0,0,0-.859,1.5,6.916,6.916,0,0,0-.406,1.922ZM99.909-.219A13.242,13.242,0,0,1,98,.117a19.476,19.476,0,0,1-2,.1A6.325,6.325,0,0,1,91.6-1.117a5.31,5.31,0,0,1-1.453-4.1v-8.187H85.753v-2.281h4.391V-20l2.719-.7v5.016h7.047v2.281H92.863v7.969a3.285,3.285,0,0,0,.9,2.523,3.758,3.758,0,0,0,2.648.836A12.645,12.645,0,0,0,98.05-2.2a15.6,15.6,0,0,0,1.859-.367Z" transform="translate(131 39)" fill="#ccc"/></g><g transform="translate(6.151 7)"><path d="M0,0H27L22.829,32H4.272Z" transform="translate(25.849 13)" fill="#e6e6e6"/><path d="M0,0H13.5V32H4.247Z" transform="translate(25.85 13)" fill="#ccc"/></g></g></svg>