<svg xmlns="http://www.w3.org/2000/svg" viewBox="0 0 26.9 30.51"><defs><style>.cls-1{fill:#264de4;}.cls-2{fill:#2965f1;}.cls-3{fill:#ebebeb;}.cls-4{fill:#fff;}</style></defs><title>css</title><g id="Layer_2" data-name="Layer 2"><g id="Layer_1-2" data-name="Layer 1"><path class="cls-1" d="M13.43,30.51l-11-3.05L0,0H26.9L24.45,27.45l-11,3.06Z"/><path class="cls-2" d="M22.35,25.7,24.44,2.24h-11V28.17l8.9-2.47Z"/><path class="cls-3" d="M5.61,12.43l.3,3.37h7.54V12.43ZM5,5.61,5.31,9h8.14V5.61Zm8.44,15.56h0l-3.75-1-.24-2.69H6.06l.48,5.29,6.89,1.91h0Z"/><path class="cls-4" d="M21.27,12.43l.6-6.82H13.44V9h4.74l-.3,3.45H13.44V15.8h4.14l-.39,4.36-3.75,1v3.5l6.9-1.91.05-.57.79-8.87.09-.9Z"/></g></g></svg>