<svg xmlns="http://www.w3.org/2000/svg" viewBox="0 0 28.2 32"><defs><style>.cls-1{fill:#e34e26;}.cls-2{fill:#ef662a;}.cls-3{fill:#fff;}.cls-4{fill:#ebebeb;}</style></defs><title>html</title><g id="Layer_2" data-name="Layer 2"><g id="Layer_1-2" data-name="Layer 1"><g id="Guides_to_delete" data-name="Guides to delete"><polygon class="cls-1" points="2.57 28.8 0 0 28.2 0 25.63 28.8 14.09 32 2.57 28.8"/><polygon class="cls-2" points="14.1 2.35 14.1 29.55 23.43 26.97 25.63 2.35 14.1 2.35"/><polygon class="cls-3" points="5.25 5.89 6.21 16.57 18.45 16.57 18.04 21.15 14.1 22.22 10.16 21.15 9.9 18.21 6.35 18.21 6.86 23.88 14.1 25.89 21.34 23.88 22.31 13.04 9.44 13.04 9.11 9.42 22.62 9.42 22.63 9.42 22.95 5.89 5.25 5.89"/><polygon class="cls-4" points="14.1 5.89 5.25 5.89 6.21 16.57 14.1 16.57 14.1 13.04 9.44 13.04 9.11 9.42 14.1 9.42 14.1 5.89"/><polygon class="cls-4" points="14.1 22.21 14.1 22.22 10.16 21.15 9.9 18.21 6.35 18.21 6.86 23.88 14.1 25.89 14.1 25.89 14.1 22.21"/></g></g></g></svg>