<svg xmlns="http://www.w3.org/2000/svg" viewBox="0 0 28.4 32"><defs><style>.cls-1{fill:#539e43;}</style></defs><title>nodejs</title><g id="Layer_2" data-name="Layer 2"><g id="Layer_1-2" data-name="Layer 1"><path class="cls-1" d="M14.2,32A2.69,2.69,0,0,1,13,31.68L9.05,29.35c-.58-.32-.29-.44-.11-.5a6.94,6.94,0,0,0,1.76-.79.26.26,0,0,1,.29,0l3,1.79a.38.38,0,0,0,.36,0l11.73-6.79a.34.34,0,0,0,.17-.32V9.22a.36.36,0,0,0-.17-.33L14.35,2.13a.38.38,0,0,0-.36,0L2.26,8.89a.39.39,0,0,0-.17.33V22.77a.37.37,0,0,0,.17.32l3.21,1.85c1.73.89,2.82-.14,2.82-1.17V10.39A.36.36,0,0,1,8.64,10h1.5a.36.36,0,0,1,.36.35V23.77c0,2.32-1.27,3.67-3.47,3.67a5.08,5.08,0,0,1-2.71-.73L1.23,24.94A2.48,2.48,0,0,1,0,22.8V9.25A2.48,2.48,0,0,1,1.23,7.1L13,.31a2.63,2.63,0,0,1,2.47,0L27.16,7.1A2.47,2.47,0,0,1,28.4,9.25V22.8a2.47,2.47,0,0,1-1.24,2.14l-11.73,6.8A3.09,3.09,0,0,1,14.2,32Zm3.62-9.32c-5.15,0-6.21-2.35-6.21-4.35A.36.36,0,0,1,12,18h1.52a.3.3,0,0,1,.33.29c.23,1.56.91,2.32,4,2.32,2.47,0,3.53-.56,3.53-1.88,0-.76-.29-1.32-4.14-1.7C14,16.68,12,16,12,13.42c0-2.38,2-3.79,5.35-3.79,3.77,0,5.62,1.29,5.85,4.11a.47.47,0,0,1-.08.27.37.37,0,0,1-.24.12H21.37a.35.35,0,0,1-.32-.27c-.35-1.62-1.26-2.14-3.68-2.14-2.7,0-3,.94-3,1.64,0,.85.38,1.12,4,1.59s5.32,1.15,5.32,3.67-2.14,4.06-5.87,4.06Z"/></g></g></svg>