<svg xmlns="http://www.w3.org/2000/svg" viewBox="0 0 28.06 24.97"><defs><style>.cls-1{fill:#fff;}.cls-2{fill:#53c1de;}</style></defs><title>react</title><g id="Layer_2" data-name="Layer 2"><g id="Layer_1-2" data-name="Layer 1"><path class="cls-1" d="M23.07,8.1l-.9-.29c0-.21.09-.41.14-.61.68-3.32.23-6-1.29-6.88s-3.86,0-6.28,2.14l-.7.65c-.15-.15-.31-.3-.46-.43C11,.43,8.5-.52,7,.36S5.08,3.72,5.7,6.87q.09.45.21.93c-.36.1-.71.21-1,.32C1.9,9.16,0,10.78,0,12.46S2,16,5.13,17c.25.09.5.17.76.24-.08.34-.16.68-.22,1-.59,3.09-.13,5.55,1.33,6.39s4,0,6.5-2.18c.19-.17.39-.35.58-.54.26.25.51.48.76.7,2.38,2.05,4.74,2.88,6.2,2s2-3.51,1.36-6.71c0-.25-.11-.5-.17-.75l.52-.17C26,16,28.06,14.23,28.06,12.46S26.1,9.14,23.07,8.1ZM15.53,3.37c2.07-1.8,4-2.52,4.89-2s1.3,2.73.71,5.6L21,7.51a27.93,27.93,0,0,0-3.76-.59,27.64,27.64,0,0,0-2.37-3C15.1,3.75,15.31,3.56,15.53,3.37ZM8.29,13.9c.25.49.51,1,.79,1.45s.58,1,.88,1.44a25.85,25.85,0,0,1-2.58-.41A24.38,24.38,0,0,1,8.29,13.9Zm0-2.82c-.34-.82-.64-1.64-.89-2.42.8-.18,1.66-.33,2.55-.44-.3.46-.59.93-.86,1.41S8.53,10.6,8.28,11.08Zm.64,1.41c.36-.75.76-1.51,1.19-2.26S11,8.76,11.48,8.07C12.31,8,13.17,8,14,8s1.73,0,2.56.1c.46.68.92,1.4,1.35,2.15s.84,1.52,1.21,2.26c-.36.75-.77,1.51-1.21,2.27s-.88,1.48-1.34,2.17C15.77,17,14.91,17,14,17s-1.72,0-2.54-.08c-.48-.7-.94-1.42-1.37-2.18S9.28,13.25,8.92,12.49ZM19,15.35c.29-.5.56-1,.82-1.49a25.63,25.63,0,0,1,.94,2.47,26.45,26.45,0,0,1-2.62.44C18.41,16.31,18.7,15.84,19,15.35Zm.81-4.27c-.26-.48-.53-1-.81-1.46s-.56-.94-.85-1.4a23.68,23.68,0,0,1,2.55.45C20.44,9.44,20.14,10.25,19.79,11.08ZM14,4.82a24.22,24.22,0,0,1,1.65,2c-.54,0-1.1,0-1.66,0s-1.11,0-1.65,0A24.28,24.28,0,0,1,14,4.82ZM7.58,1.4c.94-.54,3,.23,5.2,2.17L13.2,4a29.6,29.6,0,0,0-2.39,3,29.33,29.33,0,0,0-3.74.58c-.07-.29-.14-.58-.19-.86C6.35,3.94,6.7,1.91,7.58,1.4ZM6.21,16.09l-.69-.22a10,10,0,0,1-3.27-1.74,2.46,2.46,0,0,1-1-1.67c0-1,1.52-2.32,4.06-3.21l1-.3A27.59,27.59,0,0,0,7.6,12.49,29.09,29.09,0,0,0,6.21,16.09Zm6.5,5.46a10.24,10.24,0,0,1-3.14,2,2.5,2.5,0,0,1-2,.07c-.89-.51-1.25-2.48-.75-5.12.06-.31.12-.62.2-.93a28.87,28.87,0,0,0,3.78.54,30,30,0,0,0,2.41,3Zm1.37-1.35c-.57-.62-1.14-1.3-1.69-2,.54,0,1.08,0,1.64,0s1.14,0,1.69,0A25.37,25.37,0,0,1,14.08,20.2Zm7.27,1.66a2.46,2.46,0,0,1-.91,1.74c-.89.52-2.78-.15-4.82-1.9-.23-.2-.47-.42-.7-.65a28.15,28.15,0,0,0,2.35-3,27.8,27.8,0,0,0,3.8-.59c.05.23.11.46.15.68A10.05,10.05,0,0,1,21.35,21.86Zm1-6L21.9,16a27.33,27.33,0,0,0-1.42-3.55A29.59,29.59,0,0,0,21.85,9l.83.26c2.6.89,4.18,2.22,4.18,3.23S25.15,15,22.37,15.88Z"/><path class="cls-2" d="M23.07,8.1l-.9-.29c0-.21.09-.41.14-.61.68-3.32.23-6-1.29-6.88s-3.86,0-6.28,2.14l-.7.65c-.15-.15-.31-.3-.46-.43C11,.43,8.5-.52,7,.36S5.08,3.72,5.7,6.87q.09.45.21.93c-.36.1-.71.21-1,.32C1.9,9.16,0,10.78,0,12.46S2,16,5.13,17c.25.09.5.17.76.24-.08.34-.16.68-.22,1-.59,3.09-.13,5.55,1.33,6.39s4,0,6.5-2.18c.19-.17.39-.35.58-.54.26.25.51.48.76.7,2.38,2.05,4.74,2.88,6.2,2s2-3.51,1.36-6.71c0-.25-.11-.5-.17-.75l.52-.17C26,16,28.06,14.23,28.06,12.46S26.1,9.14,23.07,8.1ZM15.53,3.37c2.07-1.8,4-2.52,4.89-2s1.3,2.73.71,5.6L21,7.51a27.93,27.93,0,0,0-3.76-.59,27.64,27.64,0,0,0-2.37-3C15.1,3.75,15.31,3.56,15.53,3.37ZM8.29,13.9c.25.49.51,1,.79,1.45s.58,1,.88,1.44a25.85,25.85,0,0,1-2.58-.41A24.38,24.38,0,0,1,8.29,13.9Zm0-2.82c-.34-.82-.64-1.64-.89-2.42.8-.18,1.66-.33,2.55-.44-.3.46-.59.93-.86,1.41S8.53,10.6,8.28,11.08Zm.64,1.41c.36-.75.76-1.51,1.19-2.26S11,8.76,11.48,8.07C12.31,8,13.17,8,14,8s1.73,0,2.56.1c.46.68.92,1.4,1.35,2.15s.84,1.52,1.21,2.26c-.36.75-.77,1.51-1.21,2.27s-.88,1.48-1.34,2.17C15.77,17,14.91,17,14,17s-1.72,0-2.54-.08c-.48-.7-.94-1.42-1.37-2.18S9.28,13.25,8.92,12.49ZM19,15.35c.29-.5.56-1,.82-1.49a25.63,25.63,0,0,1,.94,2.47,26.45,26.45,0,0,1-2.62.44C18.41,16.31,18.7,15.84,19,15.35Zm.81-4.27c-.26-.48-.53-1-.81-1.46s-.56-.94-.85-1.4a23.68,23.68,0,0,1,2.55.45C20.44,9.44,20.14,10.25,19.79,11.08ZM14,4.82a24.22,24.22,0,0,1,1.65,2c-.54,0-1.1,0-1.66,0s-1.11,0-1.65,0A24.28,24.28,0,0,1,14,4.82ZM7.58,1.4c.94-.54,3,.23,5.2,2.17L13.2,4a29.6,29.6,0,0,0-2.39,3,29.33,29.33,0,0,0-3.74.58c-.07-.29-.14-.58-.19-.86C6.35,3.94,6.7,1.91,7.58,1.4ZM6.21,16.09l-.69-.22a10,10,0,0,1-3.27-1.74,2.46,2.46,0,0,1-1-1.67c0-1,1.52-2.32,4.06-3.21l1-.3A27.59,27.59,0,0,0,7.6,12.49,29.09,29.09,0,0,0,6.21,16.09Zm6.5,5.46a10.24,10.24,0,0,1-3.14,2,2.5,2.5,0,0,1-2,.07c-.89-.51-1.25-2.48-.75-5.12.06-.31.12-.62.2-.93a28.87,28.87,0,0,0,3.78.54,30,30,0,0,0,2.41,3Zm1.37-1.35c-.57-.62-1.14-1.3-1.69-2,.54,0,1.08,0,1.64,0s1.14,0,1.69,0A25.37,25.37,0,0,1,14.08,20.2Zm7.27,1.66a2.46,2.46,0,0,1-.91,1.74c-.89.52-2.78-.15-4.82-1.9-.23-.2-.47-.42-.7-.65a28.15,28.15,0,0,0,2.35-3,27.8,27.8,0,0,0,3.8-.59c.05.23.11.46.15.68A10.05,10.05,0,0,1,21.35,21.86Zm1-6L21.9,16a27.33,27.33,0,0,0-1.42-3.55A29.59,29.59,0,0,0,21.85,9l.83.26c2.6.89,4.18,2.22,4.18,3.23S25.15,15,22.37,15.88Z"/><path class="cls-2" d="M14,10a2.51,2.51,0,1,1-2.51,2.51A2.52,2.52,0,0,1,14,10"/></g></g></svg>