<svg xmlns="http://www.w3.org/2000/svg" viewBox="0 0 31.9 23.92"><defs><style>.cls-1{fill:#cd6799;}</style></defs><title>sass</title><g id="Layer_2" data-name="Layer 2"><g id="Layer_1-2" data-name="Layer 1"><path class="cls-1" d="M27.46,13.75a6.54,6.54,0,0,0-2.88.67,5.87,5.87,0,0,1-.65-1.5,4,4,0,0,1-.06-1.26,10.25,10.25,0,0,1,.38-1.35c0-.06-.07-.33-.71-.34s-1.2.12-1.26.29a7.24,7.24,0,0,0-.27,1,22.46,22.46,0,0,1-2,3.75,3.86,3.86,0,0,1-.44-1.09,4,4,0,0,1-.06-1.26,10.07,10.07,0,0,1,.38-1.36c0-.06-.07-.33-.71-.34S18,11,18,11.2s-.14.57-.27,1S16,16,15.6,16.91c-.21.46-.39.83-.52,1.08h0s0,0,0,0l-.17.33h0c-.09.16-.18.3-.23.3a1.88,1.88,0,0,1,0-1c.23-1.2.79-3.08.78-3.14s.11-.36-.36-.53a.58.58,0,0,0-.66.11s-.07.1-.07.1.51-2.11-1-2.11A4.37,4.37,0,0,0,10.58,14L8.43,15.2l-1,.56-.07-.08c-1.78-1.9-5.08-3.25-4.94-5.8,0-.94.37-3.38,6.33-6.35,4.91-2.42,8.81-1.75,9.49-.27,1,2.12-2.09,6.06-7.16,6.63a3.81,3.81,0,0,1-3.21-.81c-.26-.29-.31-.3-.4-.25s-.06.35,0,.5a3,3,0,0,0,1.82,1.44,9.69,9.69,0,0,0,6-.58C18.28,9,20.68,5.69,20,2.93S14.61-.81,10.2.76A22.16,22.16,0,0,0,2.69,5.07C.26,7.34-.13,9.32,0,10.14.6,13.08,4.64,15,6.26,16.41L6,16.53c-.81.4-3.89,2-4.66,3.72-.88,1.94.14,3.32.81,3.51a5,5,0,0,0,5.36-2.17,5.38,5.38,0,0,0,.48-5s0,0,0,0l.63-.37,1.17-.66a7.63,7.63,0,0,0-.41,2.12,4.41,4.41,0,0,0,.95,3.08,1.07,1.07,0,0,0,.77.25c.68,0,1-.57,1.34-1.25s.8-1.79.8-1.79-.48,2.6.81,2.6c.46,0,.93-.6,1.14-.91h0l0-.05.07-.13h0c.19-.32.61-1.06,1.23-2.29.81-1.59,1.58-3.57,1.58-3.57a10.29,10.29,0,0,0,.31,1.29,12.62,12.62,0,0,0,.66,1.49c-.18.26-.3.41-.3.41h0c-.15.2-.32.42-.5.63a17.59,17.59,0,0,0-1.49,1.87A.5.5,0,0,0,17,20a1.27,1.27,0,0,0,.79.13,3.5,3.5,0,0,0,1.17-.27,3.74,3.74,0,0,0,1-.53,2.23,2.23,0,0,0,1-2,3.93,3.93,0,0,0-.37-1.4,2.2,2.2,0,0,0,.17-.25,25.39,25.39,0,0,0,1.75-3A10,10,0,0,0,22.74,14a8.94,8.94,0,0,0,.57,1.29,5.58,5.58,0,0,0-1.71,2.19c-.36,1.06-.08,1.54.46,1.65a1.62,1.62,0,0,0,.85-.17A3.86,3.86,0,0,0,24,18.35a2.4,2.4,0,0,0,1.19-2,3.69,3.69,0,0,0-.27-1.16,6.09,6.09,0,0,1,3.1-.36c2.77.33,3.32,2.06,3.21,2.79a1.81,1.81,0,0,1-.88,1.24c-.19.13-.25.17-.24.26s.12.12.28.09a2.14,2.14,0,0,0,1.51-1.92c.09-1.72-1.54-3.59-4.43-3.57ZM6.07,21c-.92,1-2.2,1.38-2.75,1.06S3,20.2,4.09,19.14a13.51,13.51,0,0,1,2.16-1.61c.13-.09.33-.2.57-.35l.06,0h0L7,17.06A4,4,0,0,1,6.07,21Zm6.7-4.55c-.32.78-1,2.78-1.4,2.67s-.56-1.61-.07-3.11a7.05,7.05,0,0,1,1.09-2c.5-.56,1.06-.74,1.19-.52s-.61,2.47-.81,3Zm5.53,2.64c-.13.07-.26.12-.32.08S18,19,18,19s.69-.75,1-1.09l.54-.69v.08a2.29,2.29,0,0,1-1.25,1.73Zm4.27-1c-.1-.07-.09-.3.25-1a3.7,3.7,0,0,1,.95-1.23,2.18,2.18,0,0,1,.09.54,1.77,1.77,0,0,1-1.29,1.72Z"/></g></g></svg>