<svg xmlns="http://www.w3.org/2000/svg" viewBox="0 0 32 32"><defs><style>.cls-1{fill:#007acc;}.cls-2{fill:#fff;}</style></defs><title>ts</title><g id="Layer_2" data-name="Layer 2"><g id="Layer_1-2" data-name="Layer 1"><polygon class="cls-1" points="0 16 0 32 16 32 32 32 32 16 32 0 16 0 0 0 0 16"/><path class="cls-2" d="M7.08,16.11v1.31h4.16V29.25h2.95V17.42h4.16V16.13c0-.71,0-1.3,0-1.32s-2.55,0-5.63,0H7.09Z"/><path class="cls-2" d="M25.82,14.76a4.05,4.05,0,0,1,2,1.16,5.35,5.35,0,0,1,.77,1s-1.38,1-2.23,1.5c0,0-.15-.11-.29-.31a1.82,1.82,0,0,0-1.5-.91c-1-.06-1.59.44-1.59,1.29a1.18,1.18,0,0,0,.14.6c.21.44.61.71,1.85,1.25,2.29,1,3.27,1.63,3.88,2.56a4.61,4.61,0,0,1,.37,3.9,4.27,4.27,0,0,1-3.54,2.53,9.89,9.89,0,0,1-2.43,0A5.9,5.9,0,0,1,20,27.63a5.76,5.76,0,0,1-.83-1.23,1,1,0,0,1,.29-.19l1.19-.69.92-.53.19.28A4.34,4.34,0,0,0,23,26.44a3,3,0,0,0,3.11-.16,1.2,1.2,0,0,0,.42-1,1.18,1.18,0,0,0-.24-.81c-.25-.36-.76-.66-2.2-1.28a8,8,0,0,1-3-1.86,4,4,0,0,1-.88-1.6,6.64,6.64,0,0,1-.06-2,3.9,3.9,0,0,1,3.28-3A8.59,8.59,0,0,1,25.82,14.76Z"/></g></g></svg>